<svg xmlns="http://www.w3.org/2000/svg" version="1.1" xmlns:xlink="http://www.w3.org/1999/xlink" xmlns:svgjs="http://svgjs.dev/svgjs" width="1000" height="623" viewBox="0 0 1000 623"><g transform="matrix(1,0,0,1,-0.6060606060606233,0.2522267206477409)"><svg viewBox="0 0 396 247" data-background-color="#89939e" preserveAspectRatio="xMidYMid meet" height="623" width="1000" xmlns="http://www.w3.org/2000/svg" xmlns:xlink="http://www.w3.org/1999/xlink"><g id="tight-bounds" transform="matrix(1,0,0,1,0.2400000000000091,-0.09999999999999432)"><svg viewBox="0 0 395.52 247.2" height="247.2" width="395.52"><g><svg></svg></g><g><svg viewBox="0 0 395.52 247.2" height="247.2" width="395.52"><g transform="matrix(1,0,0,1,75.54432000000001,111.40005216072782)"><svg viewBox="0 0 244.43135999999996 24.399895678544347" height="24.399895678544347" width="244.43135999999996"><g><svg viewBox="0 0 244.43135999999996 24.399895678544347" height="24.399895678544347" width="244.43135999999996"><g><svg viewBox="0 0 244.43135999999996 24.399895678544347" height="24.399895678544347" width="244.43135999999996"><g><svg viewBox="0 0 244.43135999999996 24.399895678544347" height="24.399895678544347" width="244.43135999999996"><g id="textblocktransform"><svg viewBox="0 0 244.43135999999996 24.399895678544347" height="24.399895678544347" width="244.43135999999996" id="textblock"><g><svg viewBox="0 0 244.43135999999996 24.399895678544347" height="24.399895678544347" width="244.43135999999996"><g transform="matrix(1,0,0,1,0,0)"><svg width="244.43135999999996" viewBox="2.950000047683716 -38.70000076293945 395.65997314453125 39.5" height="24.399895678544347" data-palette-color="#000000"><path d="M33.5-17.7L33.5-3.1Q32.75-2.45 31.4-1.83 30.05-1.2 28.43-0.7 26.8-0.2 25.08 0.1 23.35 0.4 21.85 0.4L21.85 0.4Q17.5 0.4 14.03-0.95 10.55-2.3 8.08-4.7 5.6-7.1 4.28-10.35 2.95-13.6 2.95-17.4L2.95-17.4Q2.95-21.9 4.42-25.48 5.9-29.05 8.47-31.53 11.05-34 14.4-35.27 17.75-36.55 21.5-36.55L21.5-36.55Q24.65-36.55 27.35-35.8 30.05-35.05 32.1-33.9L32.1-33.9 30.45-29.45Q29.45-30.05 27.98-30.55 26.5-31.05 24.95-31.38 23.4-31.7 22.05-31.7L22.05-31.7Q18.85-31.7 16.25-30.73 13.65-29.75 11.8-27.93 9.95-26.1 8.95-23.53 7.95-20.95 7.95-17.75L7.95-17.75Q7.95-14.8 8.95-12.35 9.95-9.9 11.8-8.13 13.65-6.35 16.23-5.38 18.8-4.4 21.9-4.4L21.9-4.4Q23.75-4.4 25.55-4.78 27.35-5.15 28.65-5.85L28.65-5.85 28.65-13.05 21.45-13.05 21.45-17.7 33.5-17.7ZM48.15 0.8L48.15 0.8Q45.35 0.8 43.52-0.93 41.7-2.65 41.6-5.4L41.6-5.4 41.6-20.7 46.25-20.7 46.25-7.05Q46.35-5.35 47.22-4.3 48.1-3.25 50-3.2L50-3.2Q51.75-3.2 53.12-4.23 54.5-5.25 55.35-7.03 56.2-8.8 56.2-11.05L56.2-11.05 56.2-20.7 60.85-20.7 60.85 0 56.6 0 56.2-5.1 56.45-4.2Q55.85-2.75 54.62-1.63 53.4-0.5 51.75 0.15 50.1 0.8 48.15 0.8ZM68.9 0L68.9-20.7 73.55-20.7 73.55 0 68.9 0ZM68.55-28.2L68.55-28.2Q68.55-29.3 69.42-30.05 70.3-30.8 71.35-30.8L71.35-30.8Q72.4-30.8 73.22-30.05 74.05-29.3 74.05-28.2L74.05-28.2Q74.05-27.05 73.22-26.33 72.4-25.6 71.35-25.6L71.35-25.6Q70.3-25.6 69.42-26.35 68.55-27.1 68.55-28.2ZM89.99 0.5L89.99 0.5Q87.14 0.5 84.82-0.88 82.49-2.25 81.14-4.78 79.79-7.3 79.79-10.6L79.79-10.6Q79.79-14.05 81.22-16.5 82.64-18.95 85.09-20.25 87.54-21.55 90.59-21.55L90.59-21.55Q93.04-21.55 95.27-20.5 97.49-19.45 98.74-17.6L98.74-17.6 98.54-15.95 98.54-38.7 103.14-38.7 103.14 0 98.49 0 98.49-5.15 98.99-3.85Q97.54-1.95 95.24-0.73 92.94 0.5 89.99 0.5ZM91.44-3.45L91.44-3.45Q93.29-3.45 94.74-4.13 96.19-4.8 97.14-6 98.09-7.2 98.49-8.85L98.49-8.85 98.49-12.75Q98.09-14.25 97.07-15.38 96.04-16.5 94.62-17.18 93.19-17.85 91.44-17.85L91.44-17.85Q89.54-17.85 87.97-16.93 86.39-16 85.44-14.4 84.49-12.8 84.49-10.7L84.49-10.7Q84.49-8.65 85.44-7.03 86.39-5.4 87.99-4.42 89.59-3.45 91.44-3.45ZM109.44-10.55L109.44-10.55Q109.44-13.65 110.92-16.15 112.39-18.65 114.99-20.1 117.59-21.55 120.89-21.55L120.89-21.55Q124.29-21.55 126.84-20.1 129.39-18.65 130.79-16.15 132.19-13.65 132.19-10.55L132.19-10.55Q132.19-7.45 130.79-4.93 129.39-2.4 126.82-0.95 124.24 0.5 120.84 0.5L120.84 0.5Q117.54 0.5 114.97-0.88 112.39-2.25 110.92-4.73 109.44-7.2 109.44-10.55ZM114.09-10.5L114.09-10.5Q114.09-8.5 114.99-6.88 115.89-5.25 117.42-4.3 118.94-3.35 120.79-3.35L120.79-3.35Q122.74-3.35 124.27-4.3 125.79-5.25 126.64-6.88 127.49-8.5 127.49-10.5L127.49-10.5Q127.49-12.5 126.64-14.13 125.79-15.75 124.27-16.73 122.74-17.7 120.79-17.7L120.79-17.7Q118.89-17.7 117.37-16.7 115.84-15.7 114.97-14.08 114.09-12.45 114.09-10.5ZM140.49-20.6L140.49-29.8 145.14-29.8 145.14-20.6 150.84-20.6 150.84-16.95 145.14-16.95 145.14 0 140.49 0 140.49-16.95 136.69-16.95 136.69-20.6 140.49-20.6ZM158.44-20.6L158.44-29.8 163.09-29.8 163.09-20.6 168.79-20.6 168.79-16.95 163.09-16.95 163.09 0 158.44 0 158.44-16.95 154.64-16.95 154.64-20.6 158.44-20.6ZM174.38 0L174.38-20.7 179.03-20.7 179.03 0 174.38 0ZM174.03-28.2L174.03-28.2Q174.03-29.3 174.91-30.05 175.78-30.8 176.83-30.8L176.83-30.8Q177.88-30.8 178.71-30.05 179.53-29.3 179.53-28.2L179.53-28.2Q179.53-27.05 178.71-26.33 177.88-25.6 176.83-25.6L176.83-25.6Q175.78-25.6 174.91-26.35 174.03-27.1 174.03-28.2ZM224.58-33.4L222.73-29.7Q220.88-30.65 218.68-31.35 216.48-32.05 214.38-32.05L214.38-32.05Q211.48-32.05 209.75-30.7 208.03-29.35 208.03-27.1L208.03-27.1Q208.03-25.4 209.13-24.23 210.23-23.05 212.03-22.2 213.83-21.35 215.78-20.6L215.78-20.6Q217.48-19.95 219.13-19.15 220.78-18.35 222.1-17.15 223.43-15.95 224.2-14.2 224.98-12.45 224.98-9.85L224.98-9.85Q224.98-7 223.55-4.65 222.13-2.3 219.48-0.95 216.83 0.4 213.18 0.4L213.18 0.4Q210.78 0.4 208.6-0.15 206.43-0.7 204.58-1.58 202.73-2.45 201.28-3.4L201.28-3.4 203.43-7.2Q204.63-6.35 206.18-5.58 207.73-4.8 209.43-4.33 211.13-3.85 212.73-3.85L212.73-3.85Q214.43-3.85 216.1-4.48 217.78-5.1 218.88-6.4 219.98-7.7 219.98-9.85L219.98-9.85Q219.98-11.7 219-12.93 218.03-14.15 216.43-15.03 214.83-15.9 213.03-16.6L213.03-16.6Q211.33-17.25 209.58-18.03 207.83-18.8 206.33-19.93 204.83-21.05 203.93-22.7 203.03-24.35 203.03-26.7L203.03-26.7Q203.03-29.55 204.4-31.68 205.78-33.8 208.18-35.02 210.58-36.25 213.68-36.35L213.68-36.35Q217.18-36.35 219.85-35.5 222.53-34.65 224.58-33.4L224.58-33.4ZM230.18-10.55L230.18-10.55Q230.18-13.65 231.65-16.15 233.13-18.65 235.73-20.1 238.33-21.55 241.63-21.55L241.63-21.55Q245.03-21.55 247.58-20.1 250.13-18.65 251.53-16.15 252.93-13.65 252.93-10.55L252.93-10.55Q252.93-7.45 251.53-4.93 250.13-2.4 247.55-0.95 244.98 0.5 241.58 0.5L241.58 0.5Q238.28 0.5 235.7-0.88 233.13-2.25 231.65-4.73 230.18-7.2 230.18-10.55ZM234.83-10.5L234.83-10.5Q234.83-8.5 235.73-6.88 236.63-5.25 238.15-4.3 239.68-3.35 241.53-3.35L241.53-3.35Q243.48-3.35 245-4.3 246.53-5.25 247.38-6.88 248.23-8.5 248.23-10.5L248.23-10.5Q248.23-12.5 247.38-14.13 246.53-15.75 245-16.73 243.48-17.7 241.53-17.7L241.53-17.7Q239.63-17.7 238.1-16.7 236.58-15.7 235.7-14.08 234.83-12.45 234.83-10.5ZM259.22 0L259.22-38.7 263.87-38.7 263.87 0 259.22 0ZM278.47 0.8L278.47 0.8Q275.67 0.8 273.85-0.93 272.02-2.65 271.92-5.4L271.92-5.4 271.92-20.7 276.57-20.7 276.57-7.05Q276.67-5.35 277.55-4.3 278.42-3.25 280.32-3.2L280.32-3.2Q282.07-3.2 283.44-4.23 284.82-5.25 285.67-7.03 286.52-8.8 286.52-11.05L286.52-11.05 286.52-20.7 291.17-20.7 291.17 0 286.92 0 286.52-5.1 286.77-4.2Q286.17-2.75 284.94-1.63 283.72-0.5 282.07 0.15 280.42 0.8 278.47 0.8ZM301.22-20.6L301.22-29.8 305.87-29.8 305.87-20.6 311.57-20.6 311.57-16.95 305.87-16.95 305.87 0 301.22 0 301.22-16.95 297.42-16.95 297.42-20.6 301.22-20.6ZM317.17 0L317.17-20.7 321.81-20.7 321.81 0 317.17 0ZM316.81-28.2L316.81-28.2Q316.81-29.3 317.69-30.05 318.56-30.8 319.62-30.8L319.62-30.8Q320.67-30.8 321.49-30.05 322.31-29.3 322.31-28.2L322.31-28.2Q322.31-27.05 321.49-26.33 320.67-25.6 319.62-25.6L319.62-25.6Q318.56-25.6 317.69-26.35 316.81-27.1 316.81-28.2ZM328.06-10.55L328.06-10.55Q328.06-13.65 329.54-16.15 331.01-18.65 333.61-20.1 336.21-21.55 339.51-21.55L339.51-21.55Q342.91-21.55 345.46-20.1 348.01-18.65 349.41-16.15 350.81-13.65 350.81-10.55L350.81-10.55Q350.81-7.45 349.41-4.93 348.01-2.4 345.44-0.95 342.86 0.5 339.46 0.5L339.46 0.5Q336.16 0.5 333.59-0.88 331.01-2.25 329.54-4.73 328.06-7.2 328.06-10.55ZM332.71-10.5L332.71-10.5Q332.71-8.5 333.61-6.88 334.51-5.25 336.04-4.3 337.56-3.35 339.41-3.35L339.41-3.35Q341.36-3.35 342.89-4.3 344.41-5.25 345.26-6.88 346.11-8.5 346.11-10.5L346.11-10.5Q346.11-12.5 345.26-14.13 344.41-15.75 342.89-16.73 341.36-17.7 339.41-17.7L339.41-17.7Q337.51-17.7 335.99-16.7 334.46-15.7 333.59-14.08 332.71-12.45 332.71-10.5ZM357.11-20.7L361.26-20.7 361.66-15.65 361.46-16.45Q362.46-18.75 364.71-20.13 366.96-21.5 369.91-21.5L369.91-21.5Q372.86-21.5 374.74-19.78 376.61-18.05 376.66-15.3L376.66-15.3 376.66 0 371.96 0 371.96-13.65Q371.91-15.35 370.99-16.43 370.06-17.5 368.11-17.5L368.11-17.5Q366.31-17.5 364.86-16.5 363.41-15.5 362.58-13.75 361.76-12 361.76-9.7L361.76-9.7 361.76 0 357.11 0 357.11-20.7ZM390.56 0.4L390.56 0.4Q388.36 0.4 386.28-0.38 384.21-1.15 382.86-2.7L382.86-2.7 384.81-5.4Q386.11-4.15 387.48-3.53 388.86-2.9 390.21-2.9L390.21-2.9Q391.21-2.9 392.06-3.15 392.91-3.4 393.43-3.98 393.96-4.55 393.96-5.55L393.96-5.55Q393.96-6.65 393.23-7.3 392.51-7.95 391.38-8.35 390.26-8.75 389.01-9.1L389.01-9.1Q386.46-9.95 385.11-11.45 383.76-12.95 383.76-15.1L383.76-15.1Q383.76-16.75 384.58-18.18 385.41-19.6 387.03-20.5 388.66-21.4 391.06-21.4L391.06-21.4Q393.21-21.4 394.91-20.88 396.61-20.35 398.11-19.15L398.11-19.15 396.26-16.25Q395.36-17.2 394.11-17.65 392.86-18.1 391.86-18.15L391.86-18.15Q391.01-18.2 390.23-17.9 389.46-17.6 388.96-17.05 388.46-16.5 388.46-15.75L388.46-15.75Q388.46-14.7 389.16-14.05 389.86-13.4 390.98-13.03 392.11-12.65 393.21-12.25L393.21-12.25Q394.76-11.8 395.96-11.05 397.16-10.3 397.88-9.2 398.61-8.1 398.61-6.45L398.61-6.45Q398.61-4.6 397.73-3.03 396.86-1.45 395.08-0.53 393.31 0.4 390.56 0.4Z" opacity="1" transform="matrix(1,0,0,1,0,0)" fill="#000000" class="undefined-text-0" data-fill-palette-color="primary" id="text-0"></path></svg></g></svg></g></svg></g></svg></g></svg></g></svg></g></svg></g><path d="M224.243 105.4L224.243 40.257 390.93 40.257 390.93 206.943 224.243 206.943 224.243 141.8 226.444 141.8 226.444 204.743 388.73 204.743 388.73 42.457 226.444 42.457 226.444 105.4Z" fill="#000000" stroke="transparent" data-fill-palette-color="primary"></path></svg></g><defs></defs></svg><rect width="395.52" height="247.2" fill="none" stroke="none" visibility="hidden"></rect></g></svg></g></svg>